<svg version="1" xmlns="http://www.w3.org/2000/svg" width="682.667" height="682.667" viewBox="0 0 512.000000 512.000000"><path d="M233.2 1.1c-20.1 1.8-46.3 7.6-64.8 14.4-14.9 5.5-40.5 18.4-53 26.7C84.7 62.8 58 90.1 38.8 120.7c-7.3 11.5-18.3 34.1-23.3 47.7C3.8 200.1-1.6 238.7.8 272.3c2.6 36.2 10.1 64.6 25.7 96.2 13.8 28.1 26 45.1 49 68 22.9 23 39.9 35.2 68 49 18.5 9.1 30 13.4 49.7 18.5 24.4 6.3 34.6 7.5 62.8 7.5 27.7 0 38.8-1.3 62.5-7.2 82-20.5 148.9-80.8 178.3-160.8 5-13.6 10.4-35.1 12.8-51 1.4-9.2 1.9-17.7 1.9-36.5 0-28-1.2-38.1-7.5-62.7-5-19.5-9.4-31.3-18.5-49.8-13.8-28.1-26-45.1-49-68-22.9-23-39.9-35.2-68-49-18.1-8.9-30.4-13.5-47.9-18-29.8-7.6-58.3-10-87.4-7.4zm195.7 125.8c1.8 1.3 4.2 4.2 5.2 6.5 1.8 3.9 1.9 9.2 1.9 122.6v118.6l-2.2 4.4c-1.7 3.3-3.5 5.1-6.8 6.7l-4.4 2.3H89.3l-4.4-2.3c-3.1-1.6-5.1-3.6-6.7-6.7l-2.2-4.5.2-120.1.3-120.1 2.7-3.5c5.6-7.4-9.8-6.8 177.8-6.5l168.5.2 3.4 2.4z"/><path d="M93.9 136.3c-1.8 1.2-3.9 3.4-4.6 4.7-4 7.8 1.8 17 10.7 17 8.9 0 14.7-9.2 10.7-17-1.6-3.3-7.3-7-10.7-7-1.5 0-4.2 1-6.1 2.3zM164.7 137c-5.6 4.4-5.6 12.9-.1 18.1 2 1.9 3.7 2.4 7.4 2.4s5.4-.5 7.4-2.4c8.3-7.8 3.7-20.1-7.4-20.1-3.2 0-5.5.6-7.3 2zM264.7 216.2c-4.8 16.6-35.6 120.8-36.3 123-.5 1.6.4 1.8 9 1.8 5.3 0 9.6-.2 9.6-.5 0-.5 37.1-126.7 39.6-134.8.5-1.5-.4-1.7-8.9-1.7h-9.4l-3.6 12.2zM168 246.5l-43.5 20.4-.3 8.3-.3 8.3L168 304c24.3 11.3 44.6 20.6 45.1 20.8.5.2.9-3.8.9-9.5v-9.8l-14.8-6.4c-39.6-17.1-53.3-23.4-52.5-24.2.5-.5 15.7-7.3 33.8-15.2l33-14.5.3-9.6c.2-7.3 0-9.6-1-9.5-.7.1-20.9 9.3-44.8 20.4zM298.2 235.6l.3 9.7 34.2 14.7c18.8 8 34.5 14.9 34.8 15.1.3.3-15.2 7.3-34.5 15.5l-35 14.9v9.7c0 5.4.2 9.8.4 9.8s20.3-9.1 44.7-20.3l44.4-20.3.3-9 .2-8.9-44.2-20.3c-24.4-11.1-44.7-20.2-45.1-20.2-.4 0-.6 4.3-.5 9.6z"/></svg>