<?xml version="1.0" encoding="UTF-8"?>
<svg width="54px" height="55px" viewBox="0 0 54 55" version="1.1" xmlns="http://www.w3.org/2000/svg" xmlns:xlink="http://www.w3.org/1999/xlink">
    <!-- Generator: Sketch 50.2 (55047) - http://www.bohemiancoding.com/sketch -->
    <title>Shape</title>
    <desc>Created with Sketch.</desc>
    <defs></defs>
    <g id="Home-(Flip)" stroke="none" stroke-width="1" fill="none" fill-rule="evenodd">
        <g id="Home---Rotate" transform="translate(-1156.000000, -251.000000)" fill="#4A90E2" fill-rule="nonzero">
            <g id="times" transform="translate(1156.000000, 251.000000)">
                <path d="M37.2354545,27.5 L52.5871023,11.8640625 C54.4709659,9.9453125 54.4709659,6.834375 52.5871023,4.9140625 L49.1752841,1.4390625 C47.2914205,-0.4796875 44.2370455,-0.4796875 42.3516477,1.4390625 L27,17.075 L11.6483523,1.4390625 C9.76448864,-0.4796875 6.71011364,-0.4796875 4.82471591,1.4390625 L1.41289773,4.9140625 C-0.470965909,6.8328125 -0.470965909,9.94375 1.41289773,11.8640625 L16.7645455,27.5 L1.41289773,43.1359375 C-0.470965909,45.0546875 -0.470965909,48.165625 1.41289773,50.0859375 L4.82471591,53.5609375 C6.70857955,55.4796875 9.76448864,55.4796875 11.6483523,53.5609375 L27,37.925 L42.3516477,53.5609375 C44.2355114,55.4796875 47.2914205,55.4796875 49.1752841,53.5609375 L52.5871023,50.0859375 C54.4709659,48.1671875 54.4709659,45.05625 52.5871023,43.1359375 L37.2354545,27.5 Z" id="Shape"></path>
            </g>
        </g>
    </g>
</svg>