<?xml version="1.0" encoding="UTF-8"?>
<svg width="66px" height="82px" viewBox="0 0 66 82" version="1.1" xmlns="http://www.w3.org/2000/svg" xmlns:xlink="http://www.w3.org/1999/xlink">
    <!-- Generator: Sketch 50.2 (55047) - http://www.bohemiancoding.com/sketch -->
    <title>angle-double-down</title>
    <desc>Created with Sketch.</desc>
    <defs></defs>
    <g id="Symbols" stroke="none" stroke-width="1" fill="none" fill-rule="evenodd">
        <g id="Down-Arrow" transform="translate(-75.000000, -73.000000)" fill="#7A7A7A" fill-rule="nonzero">
            <g id="angle-double-down">
                <g transform="translate(75.000000, 73.000000)">
                    <path d="M29.4948454,41.5351749 L1.45360825,13.2275638 C-0.484536082,11.2710084 -0.484536082,8.10721654 1.45360825,6.1714755 L6.11340206,1.4674166 C8.05154639,-0.489138867 11.185567,-0.489138867 13.1030928,1.4674166 L32.9793814,21.5325174 L52.8556701,1.4674166 C54.7938144,-0.489138867 57.9278351,-0.489138867 59.8453608,1.4674166 L64.5463918,6.15066108 C66.4845361,8.10721654 66.4845361,11.2710084 64.5463918,13.2067494 L36.5051546,41.5143605 C34.5670103,43.4917303 31.4329897,43.4917303 29.4948454,41.5351749 Z M36.5051546,80.5358836 L64.5463918,52.2419684 C66.4845361,50.2863596 66.4845361,47.1240984 64.5463918,45.1892939 L59.8865979,40.487511 C57.9484536,38.5319021 54.814433,38.5319021 52.8969072,40.487511 L33,60.5220995 L13.1237113,40.4667066 C11.185567,38.5110978 8.05154639,38.5110978 6.13402062,40.4667066 L1.45360825,45.1684896 C-0.484536082,47.1240984 -0.484536082,50.2863596 1.45360825,52.221164 L29.4948454,80.5150792 C31.4329897,82.4914924 34.5670103,82.4914924 36.5051546,80.5358836 Z" id="Shape"></path>
                </g>
            </g>
        </g>
    </g>
</svg>