<?xml version="1.0" encoding="UTF-8"?>
<svg width="86px" height="69px" viewBox="0 0 86 69" version="1.1" xmlns="http://www.w3.org/2000/svg" xmlns:xlink="http://www.w3.org/1999/xlink">
    <!-- Generator: Sketch 50.2 (55047) - http://www.bohemiancoding.com/sketch -->
    <title>Shape</title>
    <desc>Created with Sketch.</desc>
    <defs></defs>
    <g id="Home-(Scroll)" stroke="none" stroke-width="1" fill="none" fill-rule="evenodd">
        <g id="Scroll-1" transform="translate(-277.000000, -375.000000)" fill="#FFFFFF" fill-rule="nonzero">
            <g id="Main-Links" transform="translate(247.000000, 250.000000)">
                <g id="Group" transform="translate(0.000000, 86.000000)">
                    <g id="github-alt" transform="translate(30.000000, 39.000000)">
                        <path d="M33.3429167,47.5618623 C33.3429167,51.317219 31.39,57.4623482 26.7675,57.4623482 C22.145,57.4623482 20.1920833,51.317219 20.1920833,47.5618623 C20.1920833,43.8065056 22.145,37.6613764 26.7675,37.6613764 C31.39,37.6613764 33.3429167,43.8065056 33.3429167,47.5618623 Z M86,38.4879143 C86,44.2197745 85.4266667,50.2930308 82.8645833,55.5577175 C76.0741667,69.3213694 57.405,68.9979415 44.0391667,68.9979415 C30.4583333,68.9979415 10.6783333,69.4830833 3.61916667,55.5577175 C1.00333333,50.3469355 0,44.2197745 0,38.4879143 C0,30.9592326 2.49041667,23.8438199 7.43541667,18.0760232 C6.50375,15.2370454 6.05583333,12.2543219 6.05583333,9.30753482 C6.05583333,5.44436882 6.93375,3.50380172 8.67166667,0 C16.7879167,0 21.98375,1.61713925 28.165,6.46855702 C33.3608333,5.22875026 38.7,4.67173562 44.0570833,4.67173562 C48.8945833,4.67173562 53.7679167,5.19281383 58.4620833,6.32481131 C64.55375,1.52729818 69.7495833,0 77.77625,0 C79.5320833,3.50380172 80.3920833,5.44436882 80.3920833,9.30753482 C80.3920833,12.2543219 79.92625,15.1831408 79.0125,17.9682139 C83.9395833,23.7899153 86,30.9592326 86,38.4879143 Z M74.4795833,47.5618623 C74.4795833,39.6738164 69.6958333,32.7201176 61.3108333,32.7201176 C57.9245833,32.7201176 54.6816667,33.3310369 51.2775,33.7982104 C48.6079167,34.2114793 45.9383333,34.3731933 43.1970833,34.3731933 C40.47375,34.3731933 37.8041667,34.2114793 35.1166667,33.7982104 C31.76625,33.3310369 28.4875,32.7201176 25.0833333,32.7201176 C16.6983333,32.7201176 11.9145833,39.6738164 11.9145833,47.5618623 C11.9145833,63.3379541 26.3195833,65.763663 38.86125,65.763663 L47.4970833,65.763663 C60.0925,65.763663 74.4795833,63.3559223 74.4795833,47.5618623 Z M59.6804167,37.6613764 C55.0579167,37.6613764 53.105,43.8065056 53.105,47.5618623 C53.105,51.317219 55.0579167,57.4623482 59.6804167,57.4623482 C64.3029167,57.4623482 66.2558333,51.317219 66.2558333,47.5618623 C66.2558333,43.8065056 64.3029167,37.6613764 59.6804167,37.6613764 Z" id="Shape"></path>
                    </g>
                </g>
            </g>
        </g>
    </g>
</svg>