<?xml version="1.0" encoding="UTF-8"?>
<svg width="29px" height="38px" viewBox="0 0 29 38" version="1.1" xmlns="http://www.w3.org/2000/svg" xmlns:xlink="http://www.w3.org/1999/xlink">
    <!-- Generator: Sketch 50.2 (55047) - http://www.bohemiancoding.com/sketch -->
    <title>map-marker-alt copy</title>
    <desc>Created with Sketch.</desc>
    <defs></defs>
    <g id="Home-(Scroll)" stroke="none" stroke-width="1" fill="none" fill-rule="evenodd">
        <g id="Scroll-1" transform="translate(-279.000000, -1033.000000)" fill="#6CAE67" fill-rule="nonzero">
            <g id="Location" transform="translate(240.000000, 994.000000)">
                <g id="map-marker-alt-copy" transform="translate(39.000000, 39.000000)">
                    <path d="M13.0098229,37.2333112 C2.03679687,21.5999518 0,19.9954912 0,14.2499965 C0,6.37991641 6.49184635,0 14.5,0 C22.5081536,0 29,6.37991641 29,14.2499965 C29,19.9954912 26.9632031,21.5999518 15.9901771,37.2333112 C15.2700859,38.2556 13.7298385,38.2555258 13.0098229,37.2333112 Z M14.5,20.1874951 C17.836737,20.1874951 20.5416667,17.5292028 20.5416667,14.2499965 C20.5416667,10.9707903 17.836737,8.31249797 14.5,8.31249797 C11.163263,8.31249797 8.45833333,10.9707903 8.45833333,14.2499965 C8.45833333,17.5292028 11.163263,20.1874951 14.5,20.1874951 Z" id="Shape"></path>
                </g>
            </g>
        </g>
    </g>
</svg>