<?xml version="1.0" encoding="UTF-8"?>
<svg width="89px" height="73px" viewBox="0 0 89 73" version="1.1" xmlns="http://www.w3.org/2000/svg" xmlns:xlink="http://www.w3.org/1999/xlink">
    <!-- Generator: Sketch 50.2 (55047) - http://www.bohemiancoding.com/sketch -->
    <title>Shape</title>
    <desc>Created with Sketch.</desc>
    <defs></defs>
    <g id="Home-(Scroll)" stroke="none" stroke-width="1" fill="none" fill-rule="evenodd">
        <g id="Scroll-1" transform="translate(-1092.000000, -373.000000)" fill="#FFFFFF" fill-rule="nonzero">
            <g id="twitter" transform="translate(1092.000000, 373.000000)">
                <path d="M79.8517377,18.1929025 C79.9082321,18.9913019 79.9082321,19.7898768 79.9082321,20.5882762 C79.9082321,44.9405103 61.5548654,73 28.010252,73 C17.6757819,73 8.07556475,69.9772122 0,64.7305627 C1.46833191,64.901548 2.87999562,64.9586016 4.40482189,64.9586016 C12.9319939,64.9586016 20.781755,62.0500966 27.0501955,57.088364 C19.0311251,56.9172031 12.3109036,51.6133245 9.99550389,44.3132718 C11.1250435,44.4842571 12.2544092,44.5983643 13.4404431,44.5983643 C15.0780843,44.5983643 16.7158993,44.3701498 18.2405517,43.9711257 C9.88268899,42.2600442 3.61407466,34.8460599 3.61407466,25.8921549 L3.61407466,25.664116 C6.04228923,27.0328759 8.86613815,27.8883288 11.8589487,28.0022605 C6.94585135,24.6943802 3.72706339,19.0483555 3.72706339,12.6608094 C3.72706339,9.23899749 4.63045168,6.10227806 6.21177231,3.36475831 C15.1908992,14.5428762 28.6878367,21.8427533 43.8222415,22.6413282 C58.9566463,23.4399031 43.3704604,19.8469304 43.3704604,18.4211169 C43.3704604,8.2694373 51.5025195,0 61.6110122,0 C66.8629018,0 71.606516,2.22421285 74.9384666,5.81718558 C79.0608166,5.01878621 83.0138575,3.47886552 86.5152911,1.36875987 C85.1597741,5.64620031 82.2797784,9.23917304 78.4962207,11.5202639 C82.1669635,11.1212398 85.7247177,10.0944505 89,8.66881254 C86.5156387,12.3186633 83.4094918,15.5693144 79.8517377,18.1929025 Z" id="Shape"></path>
            </g>
        </g>
    </g>
</svg>