<?xml version="1.0" encoding="UTF-8"?>
<svg width="54px" height="41px" viewBox="0 0 54 41" version="1.1" xmlns="http://www.w3.org/2000/svg" xmlns:xlink="http://www.w3.org/1999/xlink">
    <!-- Generator: Sketch 50.2 (55047) - http://www.bohemiancoding.com/sketch -->
    <title>home</title>
    <desc>Created with Sketch.</desc>
    <defs></defs>
    <g id="Symbols" stroke="none" stroke-width="1" fill="none" fill-rule="evenodd">
        <g id="Header" transform="translate(-1125.000000, -51.000000)" fill="#FFFFFF" fill-rule="nonzero">
            <g id="Nav">
                <g transform="translate(120.000000, 20.000000)">
                    <g id="Nav-Menu" transform="translate(990.000000, 0.000000)">
                        <g id="home" transform="translate(15.000000, 31.000000)">
                            <path d="M45.7491274,25.6770915 L45.7491274,38.8018541 C45.7491274,40.0199933 44.7458996,41 43.4988969,41 L32.6227829,41 C32.0039695,41 31.4976677,40.5054172 31.4976677,39.9009271 L31.4976677,29.642913 C31.4976677,29.0384229 30.9913658,28.5438401 30.3725524,28.5438401 L23.621861,28.5438401 C23.0030476,28.5438401 22.4967457,29.0384229 22.4967457,29.642913 L22.4967457,39.9009271 C22.4967457,40.5054172 21.9904439,41 21.3716305,41 L10.4955165,41 C9.24851377,41 8.24528601,40.0199933 8.24528601,38.8018541 L8.24528601,25.6770915 C8.24528601,25.3473696 8.39530137,25.0359656 8.65782826,24.82531 L26.2846337,10.6472691 C26.697176,10.3175472 27.2972374,10.3175472 27.7191557,10.6472691 L45.3459611,24.82531 C45.599112,25.0359656 45.7491274,25.3473696 45.7491274,25.6770915 Z M53.5874303,20.0992963 L45.7491274,13.7887859 L45.7491274,1.10365241 C45.7491274,0.499162292 45.2428255,0.00457947057 44.6240122,0.00457947057 L39.3734744,0.00457947057 C38.754661,0.00457947057 38.2483591,0.499162292 38.2483591,1.10365241 L38.2483591,7.75304367 L29.8568746,1.00290405 C28.1973296,-0.334301352 25.7970838,-0.334301352 24.1375388,1.00290405 L0.406983157,20.0992963 C-0.0711908209,20.4839719 -0.136822543,21.1800514 0.256967791,21.6471574 L2.64783768,24.4864291 C3.04162802,24.9535351 3.754201,25.0176477 4.23237498,24.6329722 L26.2846337,6.89210321 C26.697176,6.56238132 27.2972374,6.56238132 27.7191557,6.89210321 L49.7714144,24.6329722 C50.2495884,25.0176477 50.9621614,24.9535351 51.3559517,24.4864291 L53.7468216,21.6471574 C54.1406119,21.1708924 54.0656042,20.4839719 53.5874303,20.0992963 Z" id="Shape"></path>
                        </g>
                    </g>
                </g>
            </g>
        </g>
    </g>
</svg>