<?xml version="1.0" encoding="UTF-8"?>
<svg width="42px" height="42px" viewBox="0 0 42 42" version="1.1" xmlns="http://www.w3.org/2000/svg" xmlns:xlink="http://www.w3.org/1999/xlink">
    <!-- Generator: Sketch 50.2 (55047) - http://www.bohemiancoding.com/sketch -->
    <title>at</title>
    <desc>Created with Sketch.</desc>
    <defs></defs>
    <g id="Home-(Scroll)" stroke="none" stroke-width="1" fill="none" fill-rule="evenodd">
        <g id="Scroll-1" transform="translate(-801.000000, -1027.000000)" fill="#6CAE67" fill-rule="nonzero">
            <g id="Email" transform="translate(758.000000, 994.000000)">
                <g id="at" transform="translate(43.000000, 33.000000)">
                    <path d="M21,0 C9.39419758,0 0,9.39233468 0,21 C0,32.6058024 9.39233468,42 21,42 C25.0775565,42 29.0733145,40.8026613 32.466,38.5940202 C33.4825524,37.9322661 33.7044073,36.537375 32.936129,35.5988105 L32.0743669,34.5460161 C31.4248065,33.752504 30.2809839,33.5580847 29.4177823,34.1117056 C26.9206452,35.7132944 23.9902984,36.5806452 21,36.5806452 C12.4087984,36.5806452 5.41935484,29.5912016 5.41935484,21 C5.41935484,12.4087984 12.4087984,5.41935484 21,5.41935484 C29.4795121,5.41935484 36.5806452,10.2983831 36.5806452,18.9677419 C36.5806452,22.2520403 34.7945444,25.7200887 31.6549597,26.0546492 C30.1858911,26.0162056 30.2230645,24.9659516 30.5138468,23.5122944 L32.4980927,13.2570121 C32.7407782,12.0030242 31.7801129,10.8387097 30.5029234,10.8387097 L26.6940484,10.8387097 C26.111821,10.838697 25.6223438,11.2757353 25.5566613,11.854246 L25.5558145,11.8620363 C24.3113105,10.3462258 22.1307823,10.0181855 20.477625,10.0181855 C14.1623831,10.0181855 8.80645161,15.288 8.80645161,22.8434274 C8.80645161,28.3731169 11.9213105,31.8082258 16.9354839,31.8082258 C19.2204194,31.8082258 21.7933427,30.484125 23.2855282,28.5622863 C24.0918266,31.450125 26.7245323,31.4500403 29.2730685,31.4500403 C38.4951169,31.4500403 42,25.386121 42,18.9677419 C42,7.42222984 32.6874315,0 21,0 Z M19.1641935,25.7783468 C17.2802056,25.7783468 16.109879,24.4554315 16.109879,22.3259637 C16.109879,18.5160726 18.7161653,16.1674597 21.0745161,16.1674597 C22.9621452,16.1674597 24.0891169,17.4580282 24.0891169,19.6197581 C24.0891169,23.4354073 21.2206694,25.7783468 19.1641935,25.7783468 Z" id="Shape"></path>
                </g>
            </g>
        </g>
    </g>
</svg>