<?xml version="1.0" encoding="UTF-8"?>
<svg width="64px" height="43px" viewBox="0 0 64 43" version="1.1" xmlns="http://www.w3.org/2000/svg" xmlns:xlink="http://www.w3.org/1999/xlink">
    <!-- Generator: Sketch 50.2 (55047) - http://www.bohemiancoding.com/sketch -->
    <title>list-alt</title>
    <desc>Created with Sketch.</desc>
    <defs></defs>
    <g id="Symbols" stroke="none" stroke-width="1" fill="none" fill-rule="evenodd">
        <g id="Header" transform="translate(-1345.000000, -55.000000)" fill="#A8A8A8" fill-rule="nonzero">
            <g id="Nav">
                <g transform="translate(120.000000, 20.000000)">
                    <g id="Nav-Menu" transform="translate(990.000000, 0.000000)">
                        <g id="list-alt" transform="translate(235.000000, 35.000000)">
                            <path d="M58,0 L6,0 C2.68625,0 0,2.06265625 0,4.60714286 L0,38.3928571 C0,40.9373438 2.68625,43 6,43 L58,43 C61.31375,43 64,40.9373438 64,38.3928571 L64,4.60714286 C64,2.06265625 61.31375,0 58,0 Z M57.25,38.3928571 L6.75,38.3928571 C6.33578644,38.3928571 6,38.1350211 6,37.8169643 L6,5.18303571 C6,4.86497887 6.33578644,4.60714286 6.75,4.60714286 L57.25,4.60714286 C57.6642136,4.60714286 58,4.86497887 58,5.18303571 L58,37.8169643 C58,38.1350211 57.6642136,38.3928571 57.25,38.3928571 Z M52,29.5625 L52,31.8660714 C52,32.5021451 51.328375,33.0178571 50.5,33.0178571 L25.5,33.0178571 C24.671625,33.0178571 24,32.5021451 24,31.8660714 L24,29.5625 C24,28.9264263 24.671625,28.4107143 25.5,28.4107143 L50.5,28.4107143 C51.328375,28.4107143 52,28.9264263 52,29.5625 Z M52,20.3482143 L52,22.6517857 C52,23.2878594 51.328375,23.8035714 50.5,23.8035714 L25.5,23.8035714 C24.671625,23.8035714 24,23.2878594 24,22.6517857 L24,20.3482143 C24,19.7121406 24.671625,19.1964286 25.5,19.1964286 L50.5,19.1964286 C51.328375,19.1964286 52,19.7121406 52,20.3482143 Z M52,11.1339286 L52,13.4375 C52,14.0735737 51.328375,14.5892857 50.5,14.5892857 L25.5,14.5892857 C24.671625,14.5892857 24,14.0735737 24,13.4375 L24,11.1339286 C24,10.4978549 24.671625,9.98214286 25.5,9.98214286 L50.5,9.98214286 C51.328375,9.98214286 52,10.4978549 52,11.1339286 Z M20.5,12.2857143 C20.5,14.1940313 18.48525,15.7410714 16,15.7410714 C13.51475,15.7410714 11.5,14.1940313 11.5,12.2857143 C11.5,10.3773973 13.51475,8.83035714 16,8.83035714 C18.48525,8.83035714 20.5,10.3773973 20.5,12.2857143 Z M20.5,21.5 C20.5,23.408317 18.48525,24.9553571 16,24.9553571 C13.51475,24.9553571 11.5,23.408317 11.5,21.5 C11.5,19.591683 13.51475,18.0446429 16,18.0446429 C18.48525,18.0446429 20.5,19.591683 20.5,21.5 Z M20.5,30.7142857 C20.5,32.6226027 18.48525,34.1696429 16,34.1696429 C13.51475,34.1696429 11.5,32.6226027 11.5,30.7142857 C11.5,28.8059688 13.51475,27.2589286 16,27.2589286 C18.48525,27.2589286 20.5,28.8059688 20.5,30.7142857 Z" id="Shape"></path>
                        </g>
                    </g>
                </g>
            </g>
        </g>
    </g>
</svg>