<?xml version="1.0" encoding="UTF-8"?>
<svg width="235px" height="192px" viewBox="0 0 235 192" version="1.1" xmlns="http://www.w3.org/2000/svg" xmlns:xlink="http://www.w3.org/1999/xlink">
    <!-- Generator: Sketch 50.2 (55047) - http://www.bohemiancoding.com/sketch -->
    <title>sliders-h</title>
    <desc>Created with Sketch.</desc>
    <defs>
        <filter x="-7.3%" y="-27.1%" width="114.6%" height="157.8%" filterUnits="objectBoundingBox" id="filter-1">
            <feOffset dx="0" dy="4" in="SourceAlpha" result="shadowOffsetOuter1"></feOffset>
            <feGaussianBlur stdDeviation="21" in="shadowOffsetOuter1" result="shadowBlurOuter1"></feGaussianBlur>
            <feColorMatrix values="0 0 0 0 0.677508503   0 0 0 0 0.677508503   0 0 0 0 0.677508503  0 0 0 0.5 0" type="matrix" in="shadowBlurOuter1" result="shadowMatrixOuter1"></feColorMatrix>
            <feMerge>
                <feMergeNode in="shadowMatrixOuter1"></feMergeNode>
                <feMergeNode in="SourceGraphic"></feMergeNode>
            </feMerge>
        </filter>
    </defs>
    <g id="Home" stroke="none" stroke-width="1" fill="none" fill-rule="evenodd">
        <g transform="translate(-315.000000, -253.000000)" fill="#4A90E2" fill-rule="nonzero" id="Name-Wrapper">
            <g filter="url(#filter-1)" transform="translate(282.000000, 232.000000)">
                <g id="sliders-h" transform="translate(73.000000, 57.000000)">
                    <path d="M150.15625,88 L48.4375,88 L48.4375,84 C48.4375,81.8 46.2578125,80 43.59375,80 L33.90625,80 C31.2421875,80 29.0625,81.8 29.0625,84 L29.0625,88 L4.84375,88 C2.1796875,88 0,89.8 0,92 L0,100 C0,102.2 2.1796875,104 4.84375,104 L29.0625,104 L29.0625,108 C29.0625,110.2 31.2421875,112 33.90625,112 L43.59375,112 C46.2578125,112 48.4375,110.2 48.4375,108 L48.4375,104 L150.15625,104 C152.820312,104 155,102.2 155,100 L155,92 C155,89.8 152.820312,88 150.15625,88 Z M150.15625,48 L125.9375,48 L125.9375,44 C125.9375,41.8 123.757812,40 121.09375,40 L111.40625,40 C108.742188,40 106.5625,41.8 106.5625,44 L106.5625,48 L4.84375,48 C2.1796875,48 0,49.8 0,52 L0,60 C0,62.2 2.1796875,64 4.84375,64 L106.5625,64 L106.5625,68 C106.5625,70.2 108.742188,72 111.40625,72 L121.09375,72 C123.757812,72 125.9375,70.2 125.9375,68 L125.9375,64 L150.15625,64 C152.820312,64 155,62.2 155,60 L155,52 C155,49.8 152.820312,48 150.15625,48 Z M150.15625,8 L87.1875,8 L87.1875,4 C87.1875,1.8 85.0078125,0 82.34375,0 L72.65625,0 C69.9921875,0 67.8125,1.8 67.8125,4 L67.8125,8 L4.84375,8 C2.1796875,8 0,9.8 0,12 L0,20 C0,22.2 2.1796875,24 4.84375,24 L67.8125,24 L67.8125,28 C67.8125,30.2 69.9921875,32 72.65625,32 L82.34375,32 C85.0078125,32 87.1875,30.2 87.1875,28 L87.1875,24 L150.15625,24 C152.820312,24 155,22.2 155,20 L155,12 C155,9.8 152.820312,8 150.15625,8 Z" id="Shape"></path>
                </g>
            </g>
        </g>
    </g>
</svg>