<?xml version="1.0" encoding="UTF-8"?>
<svg width="42px" height="42px" viewBox="0 0 42 42" version="1.1" xmlns="http://www.w3.org/2000/svg" xmlns:xlink="http://www.w3.org/1999/xlink">
    <!-- Generator: Sketch 50.2 (55047) - http://www.bohemiancoding.com/sketch -->
    <title>search</title>
    <desc>Created with Sketch.</desc>
    <defs></defs>
    <g id="Skills" stroke="none" stroke-width="1" fill="none" fill-rule="evenodd">
        <g transform="translate(-295.000000, -385.000000)" fill="#B7B1B1" fill-rule="nonzero" id="Filter">
            <g transform="translate(-57.000000, 283.000000)">
                <g id="search" transform="translate(352.000000, 102.000000)">
                    <path d="M41.4288115,36.3116883 L33.2496976,28.1339713 C32.88053,27.7648667 32.3801028,27.5598086 31.8550644,27.5598086 L30.5178572,27.5598086 C32.7820853,24.6643882 34.1274962,21.0225564 34.1274962,17.0608339 C34.1274962,7.63636364 26.4898282,0 17.0637481,0 C7.63766803,0 0,7.63636364 0,17.0608339 C0,26.4853042 7.63766803,34.1216678 17.0637481,34.1216678 C21.0261473,34.1216678 24.6686012,32.7764867 27.5645162,30.5126452 L27.5645162,31.8496241 C27.5645162,32.3745728 27.7696093,32.8749146 28.1387769,33.2440191 L36.3178908,41.4217362 C37.089041,42.1927546 38.3360072,42.1927546 39.0989536,41.4217362 L41.4206078,39.1004785 C42.191758,38.32946 42.191758,37.0827068 41.4288115,36.3116883 Z M17.0637481,27.5598086 C11.2637145,27.5598086 6.56298004,22.8680793 6.56298004,17.0608339 C6.56298004,11.2617908 11.2555108,6.56185919 17.0637481,6.56185919 C22.8637817,6.56185919 27.5645162,11.2535885 27.5645162,17.0608339 C27.5645162,22.859877 22.8719855,27.5598086 17.0637481,27.5598086 Z" id="Shape"></path>
                </g>
            </g>
        </g>
    </g>
</svg>