<?xml version="1.0" standalone="no"?>
<!DOCTYPE svg PUBLIC "-//W3C//DTD SVG 20010904//EN"
 "http://www.w3.org/TR/2001/REC-SVG-20010904/DTD/svg10.dtd">
<svg version="1.0" xmlns="http://www.w3.org/2000/svg"
 width="113.000000pt" height="113.000000pt" viewBox="0 0 113.000000 113.000000"
 preserveAspectRatio="xMidYMid meet">
<metadata>
Created by potrace 1.11, written by Peter Selinger 2001-2013
</metadata>
<g transform="translate(0.000000,113.000000) scale(0.100000,-0.100000)"
fill="#000000" stroke="none">
<path d="M0 565 l0 -565 565 0 565 0 0 565 0 565 -565 0 -565 0 0 -565z m564
416 c3 -4 -1 -46 -9 -92 -23 -128 -26 -120 52 -117 l68 3 15 95 c9 52 19 101
24 108 9 14 122 17 131 2 3 -5 -1 -49 -10 -97 -8 -48 -15 -94 -15 -100 0 -9
21 -13 70 -13 l69 0 -5 -32 c-4 -18 -9 -49 -13 -68 l-7 -35 -71 -3 -71 -3 -7
-47 c-3 -26 -9 -57 -12 -69 -5 -22 -3 -23 66 -23 39 0 71 -3 71 -7 0 -3 -5
-35 -11 -69 l-11 -63 -71 -3 -72 -3 -15 -95 c-9 -52 -19 -101 -24 -108 -8 -14
-122 -17 -130 -3 -3 4 1 46 9 92 23 128 26 120 -52 117 l-68 -3 -12 -70 c-7
-38 -15 -85 -18 -102 l-6 -33 -69 0 c-39 0 -70 3 -70 8 0 4 7 45 15 92 8 47
15 91 15 98 0 8 -19 12 -63 12 -35 0 -66 2 -69 5 -3 3 0 33 6 68 l11 62 71 3
71 3 7 44 c3 25 8 56 12 70 6 25 6 25 -59 25 -36 0 -68 4 -71 9 -3 4 -1 36 5
69 l11 61 71 3 71 3 16 95 c8 52 19 101 23 108 9 14 123 17 131 3z"/>
<path d="M501 567 c-6 -35 -11 -67 -11 -70 0 -4 31 -7 69 -7 l68 0 6 38 c4 20
9 52 13 70 l7 32 -71 0 -70 0 -11 -63z"/>
</g>
</svg>
